<svg width="258" height="36" viewBox="0 0 258 36" fill="none" xmlns="http://www.w3.org/2000/svg">
<g clip-path="url(#clip0_220_351)">
<path d="M17.76 14.88H34.224C34.272 15.456 34.272 16.032 34.272 16.608C34.272 27.168 29.088 35.04 17.808 35.04C7.44 35.04 0 28.368 0 17.424C0 7.008 6.912 0 18.336 0C23.76 0 27.984 1.632 31.584 4.416L26.736 10.8C24.144 8.832 21.456 7.68 18.144 7.68C11.76 7.68 8.208 11.904 8.208 17.472C8.208 23.184 11.856 27.36 18.336 27.36C23.76 27.36 26.016 24.288 26.4 21.552H17.76V14.88ZM47.9589 11.472C54.6309 11.472 58.9509 15.312 58.9509 23.328V24.96H43.0629C43.5429 27.744 45.7509 28.992 48.7269 28.992C51.4149 28.992 53.7669 27.888 55.1589 26.976L57.7989 32.448C55.4469 33.888 52.4229 35.04 48.6309 35.04C41.1909 35.04 36.2469 30.384 36.2469 23.328C36.2469 15.84 41.1429 11.472 47.9589 11.472ZM47.7189 16.608C45.2709 16.608 43.4469 17.808 43.1109 20.688H51.9429C51.8469 18.096 50.0709 16.608 47.7189 16.608ZM73.3945 11.424C80.5945 11.424 85.8745 16.128 85.8745 23.232C85.8745 30.336 80.5945 35.04 73.3945 35.04C66.2425 35.04 60.9625 30.336 60.9625 23.232C60.9625 16.128 66.2425 11.424 73.3945 11.424ZM73.3945 18.048C70.5145 18.048 68.2105 20.064 68.2105 23.232C68.2105 26.4 70.5145 28.416 73.3945 28.416C76.3225 28.416 78.5785 26.4 78.5785 23.232C78.5785 20.064 76.3225 18.048 73.3945 18.048ZM96.5168 34.32H89.2688V12.144H96.3728V15.408H96.4688C97.7168 12.96 100.117 11.424 103.381 11.424C106.789 11.424 109.189 13.056 110.341 15.744H110.437C111.973 13.008 114.613 11.424 117.877 11.424C122.485 11.424 125.797 14.496 125.797 19.872V34.32H118.549V22.272C118.549 19.488 117.493 17.808 114.949 17.808C112.741 17.808 111.013 19.152 111.013 23.328V34.32H104.053V22.272C104.053 19.488 102.997 17.808 100.453 17.808C98.2448 17.808 96.5168 19.152 96.5168 23.328V34.32Z" fill="#091434"/>
<path d="M146.716 14.8797H163.18C163.228 15.4557 163.228 16.0317 163.228 16.6077C163.228 27.1677 158.044 35.0397 146.764 35.0397C136.396 35.0397 128.956 28.3677 128.956 17.4237C128.956 7.00775 135.868 -0.000244141 147.292 -0.000244141C152.716 -0.000244141 156.94 1.63175 160.54 4.41575L155.692 10.7997C153.1 8.83175 150.412 7.67975 147.1 7.67975C140.716 7.67975 137.164 11.9037 137.164 17.4717C137.164 23.1837 140.812 27.3597 147.292 27.3597C152.716 27.3597 154.972 24.2877 155.356 21.5517H146.716V14.8797ZM175.715 35.0397C169.955 35.0397 165.203 31.0077 165.203 23.2317C165.203 15.4557 169.955 11.4237 175.715 11.4237C179.315 11.4237 181.571 12.9117 182.963 15.1677H183.059V12.1437H190.307V34.3197H183.059V31.2957H182.963C181.571 33.5517 179.315 35.0397 175.715 35.0397ZM177.731 28.4157C180.659 28.4157 182.867 26.3997 182.867 23.2317C182.867 20.0637 180.659 18.0477 177.731 18.0477C174.851 18.0477 172.643 20.0637 172.643 23.2317C172.643 26.3997 174.851 28.4157 177.731 28.4157ZM201.976 34.3197H194.728V12.1437H201.832V15.4077H201.928C203.176 12.9597 205.576 11.4237 208.84 11.4237C212.248 11.4237 214.648 13.0557 215.8 15.7437H215.896C217.432 13.0077 220.072 11.4237 223.336 11.4237C227.944 11.4237 231.256 14.4957 231.256 19.8717V34.3197H224.008V22.2717C224.008 19.4877 222.952 17.8077 220.408 17.8077C218.2 17.8077 216.472 19.1517 216.472 23.3277V34.3197H209.512V22.2717C209.512 19.4877 208.456 17.8077 205.912 17.8077C203.704 17.8077 201.976 19.1517 201.976 23.3277V34.3197ZM246.128 11.4717C252.8 11.4717 257.12 15.3117 257.12 23.3277V24.9597H241.232C241.712 27.7437 243.92 28.9917 246.896 28.9917C249.584 28.9917 251.936 27.8877 253.328 26.9757L255.968 32.4477C253.616 33.8877 250.592 35.0397 246.8 35.0397C239.36 35.0397 234.416 30.3837 234.416 23.3277C234.416 15.8397 239.312 11.4717 246.128 11.4717ZM245.888 16.6077C243.44 16.6077 241.616 17.8077 241.28 20.6877H250.112C250.016 18.0957 248.24 16.6077 245.888 16.6077Z" fill="#4C0182"/>
</g>
<defs>
<clipPath id="clip0_220_351">
<rect width="258" height="36" fill="white"/>
</clipPath>
</defs>
</svg>
