<svg width="258" height="36" viewBox="0 0 258 36" fill="none" xmlns="http://www.w3.org/2000/svg">
<path d="M17.76 14.88H34.224C34.272 15.456 34.272 16.032 34.272 16.608C34.272 27.168 29.088 35.04 17.808 35.04C7.44 35.04 0 28.368 0 17.424C0 7.008 6.912 0 18.336 0C23.76 0 27.984 1.632 31.584 4.416L26.736 10.8C24.144 8.832 21.456 7.68 18.144 7.68C11.76 7.68 8.208 11.904 8.208 17.472C8.208 23.184 11.856 27.36 18.336 27.36C23.76 27.36 26.016 24.288 26.4 21.552H17.76V14.88ZM47.9589 11.472C54.6309 11.472 58.9509 15.312 58.9509 23.328V24.96H43.0629C43.5429 27.744 45.7509 28.992 48.7269 28.992C51.4149 28.992 53.7669 27.888 55.1589 26.976L57.7989 32.448C55.4469 33.888 52.4229 35.04 48.6309 35.04C41.1909 35.04 36.2469 30.384 36.2469 23.328C36.2469 15.84 41.1429 11.472 47.9589 11.472ZM47.7189 16.608C45.2709 16.608 43.4469 17.808 43.1109 20.688H51.9429C51.8469 18.096 50.0709 16.608 47.7189 16.608ZM73.3945 11.424C80.5945 11.424 85.8745 16.128 85.8745 23.232C85.8745 30.336 80.5945 35.04 73.3945 35.04C66.2425 35.04 60.9625 30.336 60.9625 23.232C60.9625 16.128 66.2425 11.424 73.3945 11.424ZM73.3945 18.048C70.5145 18.048 68.2105 20.064 68.2105 23.232C68.2105 26.4 70.5145 28.416 73.3945 28.416C76.3225 28.416 78.5785 26.4 78.5785 23.232C78.5785 20.064 76.3225 18.048 73.3945 18.048ZM96.5168 34.32H89.2688V12.144H96.3728V15.408H96.4688C97.7168 12.96 100.117 11.424 103.381 11.424C106.789 11.424 109.189 13.056 110.341 15.744H110.437C111.973 13.008 114.613 11.424 117.877 11.424C122.485 11.424 125.797 14.496 125.797 19.872V34.32H118.549V22.272C118.549 19.488 117.493 17.808 114.949 17.808C112.741 17.808 111.013 19.152 111.013 23.328V34.32H104.053V22.272C104.053 19.488 102.997 17.808 100.453 17.808C98.2448 17.808 96.5168 19.152 96.5168 23.328V34.32Z" fill="#F2F5FD"/>
<path d="M146.716 14.88H163.18C163.228 15.456 163.228 16.032 163.228 16.608C163.228 27.168 158.044 35.04 146.764 35.04C136.396 35.04 128.956 28.368 128.956 17.424C128.956 7.008 135.868 0 147.292 0C152.716 0 156.94 1.632 160.54 4.416L155.692 10.8C153.1 8.832 150.412 7.68 147.1 7.68C140.716 7.68 137.164 11.904 137.164 17.472C137.164 23.184 140.812 27.36 147.292 27.36C152.716 27.36 154.972 24.288 155.356 21.552H146.716V14.88ZM175.715 35.04C169.955 35.04 165.203 31.008 165.203 23.232C165.203 15.456 169.955 11.424 175.715 11.424C179.315 11.424 181.571 12.912 182.963 15.168H183.059V12.144H190.307V34.32H183.059V31.296H182.963C181.571 33.552 179.315 35.04 175.715 35.04ZM177.731 28.416C180.659 28.416 182.867 26.4 182.867 23.232C182.867 20.064 180.659 18.048 177.731 18.048C174.851 18.048 172.643 20.064 172.643 23.232C172.643 26.4 174.851 28.416 177.731 28.416ZM201.976 34.32H194.728V12.144H201.832V15.408H201.928C203.176 12.96 205.576 11.424 208.84 11.424C212.248 11.424 214.648 13.056 215.8 15.744H215.896C217.432 13.008 220.072 11.424 223.336 11.424C227.944 11.424 231.256 14.496 231.256 19.872V34.32H224.008V22.272C224.008 19.488 222.952 17.808 220.408 17.808C218.2 17.808 216.472 19.152 216.472 23.328V34.32H209.512V22.272C209.512 19.488 208.456 17.808 205.912 17.808C203.704 17.808 201.976 19.152 201.976 23.328V34.32ZM246.128 11.472C252.8 11.472 257.12 15.312 257.12 23.328V24.96H241.232C241.712 27.744 243.92 28.992 246.896 28.992C249.584 28.992 251.936 27.888 253.328 26.976L255.968 32.448C253.616 33.888 250.592 35.04 246.8 35.04C239.36 35.04 234.416 30.384 234.416 23.328C234.416 15.84 239.312 11.472 246.128 11.472ZM245.888 16.608C243.44 16.608 241.616 17.808 241.28 20.688H250.112C250.016 18.096 248.24 16.608 245.888 16.608Z" fill="#A791EF"/>
</svg>
