<svg width="538" height="540" viewBox="0 0 538 540" fill="none" xmlns="http://www.w3.org/2000/svg">
<g clip-path="url(#clip0_135_570)">
<path d="M136 475V401.158C136 364.068 105.932 334 68.8416 334C31.9924 334 2.02552 363.692 1.68603 400.54L1 475H136Z" fill="#A4B7F9"/>
<path d="M406.782 270.564V136.219L339.336 136.109C302.165 136.049 272 166.165 272 203.337C272 240.465 302.099 270.564 339.227 270.564H406.782Z" fill="#A4B7F9"/>
<path d="M539.892 404.406H405.972V540H539.892V404.406Z" fill="#E7ECFC"/>
<path d="M543.795 134.782H406.527V269.566H543.795V134.782Z" fill="#EBE9FF"/>
<path d="M540.654 0H406.527V135.218H540.654V0Z" fill="#4B3BCF"/>
<path d="M449.738 45.1425C474.671 45.0638 494.947 65.0001 495.025 89.6716L495.167 134.636L450.021 134.779L449.738 45.1425Z" fill="#D1DAFB"/>
<path d="M450.496 45.1379C425.921 45.2154 406.063 65.2551 406.141 89.8978L406.283 134.81L450.778 134.669L450.496 45.1379Z" fill="#D1DAFB"/>
<path d="M407 270H271V340H407V270Z" fill="#EBE9FF"/>
<path d="M406.62 472.608H271.404V540H406.62V472.608Z" fill="#EBE9FF"/>
<path d="M540.218 269.564H406.527V405.218H540.218V269.564Z" fill="#EBE9FF"/>
<path d="M407 404H473V473L407 404Z" fill="#4B70F5"/>
<path d="M406.62 269.622H473.418V337.824L406.62 269.622Z" fill="#4B70F5"/>
<path d="M473.31 472.554H539.892V539.946L473.31 472.554Z" fill="#A4B7F9"/>
<path d="M473.418 337.878H539.892V405.486L473.418 337.878Z" fill="#A4B7F9"/>
<path d="M473.31 472.554H539.892V405.216L473.31 472.554Z" fill="#A4B7F9"/>
<path d="M473.31 337.878H539.892V269.622L473.31 337.878Z" fill="#A4B7F9"/>
<path d="M405.972 540H473.418V472.608L405.972 540Z" fill="#4B70F5"/>
<path d="M407 404H473V338L407 404Z" fill="#4B70F5"/>
<mask id="mask0_135_570" style="mask-type:alpha" maskUnits="userSpaceOnUse" x="1" y="471" width="136" height="68">
<path d="M1 538.995H136.216V471H1V538.995Z" fill="#EBE9FF"/>
</mask>
<g mask="url(#mask0_135_570)">
<ellipse cx="68.6698" cy="471" rx="67.608" ry="67.9402" transform="rotate(-180 68.6698 471)" fill="#A4B7F9"/>
</g>
<mask id="mask1_135_570" style="mask-type:alpha" maskUnits="userSpaceOnUse" x="136" y="405" width="136" height="69">
<path d="M271.425 405.292H136.62V473.08H271.425V405.292Z" fill="#EBE9FF"/>
</mask>
<g mask="url(#mask1_135_570)">
<ellipse cx="203.961" cy="473.081" rx="67.4027" ry="67.7339" fill="#9A92FF"/>
</g>
<mask id="mask2_135_570" style="mask-type:alpha" maskUnits="userSpaceOnUse" x="406" y="135" width="137" height="136">
<path d="M541.998 135.718V269.502H407.026V135.718H541.998Z" fill="#EBE9FF" stroke="#4A3AFF"/>
</mask>
<g mask="url(#mask2_135_570)">
<path d="M541.961 267.046C534.438 267.046 534.438 258.852 526.916 258.852C519.394 258.852 519.394 267.046 511.871 267.046C504.349 267.046 504.349 258.852 496.827 258.852C489.304 258.852 489.304 267.046 481.782 267.046C474.26 267.046 474.26 258.852 466.737 258.852C459.215 258.852 459.215 267.046 451.693 267.046C444.17 267.046 444.17 258.852 436.648 258.852C429.126 258.852 429.126 267.046 421.587 267.046C414.065 267.046 414.065 258.852 406.526 258.852" stroke="#4B3BCF" stroke-width="25" stroke-miterlimit="10" stroke-linecap="round"/>
<path d="M541.961 253.219C534.438 253.219 534.438 245.025 526.916 245.025C519.394 245.025 519.394 253.219 511.871 253.219C504.349 253.219 504.349 245.025 496.827 245.025C489.304 245.025 489.304 253.219 481.782 253.219C474.26 253.219 474.26 245.025 466.737 245.025C459.215 245.025 459.215 253.219 451.693 253.219C444.17 253.219 444.17 245.025 436.648 245.025C429.126 245.025 429.126 253.219 421.587 253.219C414.065 253.219 414.065 245.025 406.526 245.025" stroke="#4B3BCF" stroke-width="25" stroke-miterlimit="10" stroke-linecap="round"/>
<path d="M541.96 239.396C534.438 239.396 534.438 231.201 526.916 231.201C519.393 231.201 519.393 239.396 511.871 239.396C504.349 239.396 504.349 231.201 496.826 231.201C489.304 231.201 489.304 239.396 481.782 239.396C474.259 239.396 474.259 231.201 466.737 231.201C459.215 231.201 459.215 239.396 451.692 239.396C444.17 239.396 444.17 231.201 436.647 231.201C429.125 231.201 429.125 239.396 421.587 239.396C414.08 239.396 414.08 231.201 406.558 231.201" stroke="#4B3BCF" stroke-width="25" stroke-miterlimit="10" stroke-linecap="round"/>
<path d="M542.498 175.642C534.946 175.642 534.946 167.415 527.394 167.415C519.842 167.415 519.842 175.642 512.29 175.642C504.737 175.642 504.737 167.415 497.185 167.415C489.633 167.415 489.633 175.642 482.081 175.642C474.529 175.642 474.529 167.415 466.976 167.415C459.424 167.415 459.424 175.642 451.872 175.642C444.32 175.642 444.32 167.415 436.768 167.415C429.215 167.415 429.215 175.642 421.647 175.642C414.095 175.642 414.095 167.415 406.526 167.415" stroke="#4B3BCF" stroke-width="25" stroke-miterlimit="10" stroke-linecap="round"/>
<path d="M542.498 161.76C534.946 161.76 534.946 153.533 527.394 153.533C519.842 153.533 519.842 161.76 512.29 161.76C504.737 161.76 504.737 153.533 497.185 153.533C489.633 153.533 489.633 161.76 482.081 161.76C474.529 161.76 474.529 153.533 466.976 153.533C459.424 153.533 459.424 161.76 451.872 161.76C444.32 161.76 444.32 153.533 436.768 153.533C429.215 153.533 429.215 161.76 421.647 161.76C414.095 161.76 414.095 153.533 406.526 153.533" stroke="#4B3BCF" stroke-width="25" stroke-miterlimit="10" stroke-linecap="round"/>
<path d="M542.498 147.882C534.946 147.882 534.946 139.655 527.394 139.655C519.841 139.655 519.841 147.882 512.289 147.882C504.737 147.882 504.737 139.655 497.185 139.655C489.633 139.655 489.633 147.882 482.08 147.882C474.528 147.882 474.528 139.655 466.976 139.655C459.424 139.655 459.424 147.882 451.871 147.882C444.319 147.882 444.319 139.655 436.767 139.655C429.215 139.655 429.215 147.882 421.647 147.882C414.11 147.882 414.11 139.655 406.558 139.655" stroke="#4B3BCF" stroke-width="25" stroke-miterlimit="10" stroke-linecap="round"/>
<path d="M542.498 221.376C534.946 221.376 534.946 213.149 527.394 213.149C519.842 213.149 519.842 221.376 512.29 221.376C504.737 221.376 504.737 213.149 497.185 213.149C489.633 213.149 489.633 221.376 482.081 221.376C474.529 221.376 474.529 213.149 466.976 213.149C459.424 213.149 459.424 221.376 451.872 221.376C444.32 221.376 444.32 213.149 436.768 213.149C429.215 213.149 429.215 221.376 421.647 221.376C414.095 221.376 414.095 213.149 406.526 213.149" stroke="#4B3BCF" stroke-width="25" stroke-miterlimit="10" stroke-linecap="round"/>
<path d="M542.498 207.495C534.946 207.495 534.946 199.268 527.394 199.268C519.842 199.268 519.842 207.495 512.29 207.495C504.737 207.495 504.737 199.268 497.185 199.268C489.633 199.268 489.633 207.495 482.081 207.495C474.529 207.495 474.529 199.268 466.976 199.268C459.424 199.268 459.424 207.495 451.872 207.495C444.32 207.495 444.32 199.268 436.768 199.268C429.215 199.268 429.215 207.495 421.647 207.495C414.095 207.495 414.095 199.268 406.526 199.268" stroke="#4B3BCF" stroke-width="25" stroke-miterlimit="10" stroke-linecap="round"/>
<path d="M542.498 193.616C534.946 193.616 534.946 185.389 527.394 185.389C519.841 185.389 519.841 193.616 512.289 193.616C504.737 193.616 504.737 185.389 497.185 185.389C489.633 185.389 489.633 193.616 482.08 193.616C474.528 193.616 474.528 185.389 466.976 185.389C459.424 185.389 459.424 193.616 451.871 193.616C444.319 193.616 444.319 185.389 436.767 185.389C429.215 185.389 429.215 193.616 421.647 193.616C414.11 193.616 414.11 185.389 406.558 185.389" stroke="#4B3BCF" stroke-width="25" stroke-miterlimit="10" stroke-linecap="round"/>
</g>
<path d="M383.418 159.685C385.293 159.244 387.172 160.401 387.615 162.269C388.057 164.138 386.896 166.01 385.021 166.451C383.146 166.892 381.267 165.735 380.825 163.867C380.382 161.999 381.543 160.126 383.418 159.685Z" fill="white"/>
<path d="M380.733 152.093C380.764 150.173 382.35 148.641 384.276 148.671C386.202 148.701 387.74 150.282 387.71 152.201C387.68 154.121 386.094 155.653 384.167 155.623C382.241 155.593 380.703 154.012 380.733 152.093Z" fill="white"/>
<path d="M383.435 137.839C385.312 137.405 387.186 138.57 387.621 140.44C388.056 142.311 386.887 144.178 385.01 144.611C383.133 145.045 381.259 143.88 380.824 142.01C380.389 140.139 381.558 138.272 383.435 137.839Z" fill="white"/>
<path d="M398.291 159.685C400.166 159.244 402.045 160.401 402.488 162.269C402.931 164.138 401.77 166.01 399.895 166.451C398.02 166.892 396.141 165.735 395.698 163.867C395.255 161.999 396.416 160.126 398.291 159.685Z" fill="white"/>
<path d="M395.607 152.093C395.637 150.173 397.223 148.641 399.149 148.671C401.076 148.701 402.613 150.282 402.583 152.201C402.553 154.121 400.967 155.653 399.04 155.623C397.114 155.593 395.577 154.012 395.607 152.093Z" fill="white"/>
<path d="M398.309 137.839C400.185 137.405 402.059 138.57 402.494 140.44C402.929 142.311 401.76 144.178 399.883 144.611C398.006 145.045 396.132 143.88 395.697 142.01C395.263 140.139 396.432 138.272 398.309 137.839Z" fill="white"/>
<path d="M413.195 159.631C415.07 159.19 416.949 160.347 417.392 162.215C417.835 164.084 416.674 165.956 414.799 166.397C412.924 166.838 411.045 165.681 410.602 163.813C410.159 161.945 411.32 160.072 413.195 159.631Z" fill="white"/>
<path d="M410.511 152.039C410.541 150.119 412.127 148.587 414.053 148.617C415.98 148.647 417.517 150.227 417.487 152.147C417.457 154.067 415.871 155.599 413.945 155.569C412.018 155.539 410.481 153.958 410.511 152.039Z" fill="white"/>
<path d="M413.213 137.785C415.089 137.351 416.964 138.516 417.398 140.386C417.833 142.257 416.664 144.124 414.787 144.557C412.91 144.991 411.036 143.826 410.601 141.956C410.167 140.085 411.336 138.218 413.213 137.785Z" fill="white"/>
<path d="M428.099 159.631C429.974 159.19 431.853 160.347 432.296 162.215C432.739 164.084 431.578 165.956 429.703 166.397C427.828 166.838 425.949 165.681 425.506 163.813C425.063 161.945 426.224 160.072 428.099 159.631Z" fill="white"/>
<path d="M425.415 152.039C425.445 150.119 427.031 148.587 428.957 148.617C430.884 148.647 432.421 150.227 432.391 152.147C432.361 154.067 430.775 155.599 428.848 155.569C426.922 155.539 425.385 153.958 425.415 152.039Z" fill="white"/>
<path d="M428.116 137.785C429.993 137.351 431.867 138.516 432.302 140.386C432.737 142.257 431.568 144.124 429.691 144.557C427.814 144.991 425.94 143.826 425.505 141.956C425.071 140.085 426.24 138.218 428.116 137.785Z" fill="white"/>
<path d="M383.395 193.111C385.27 192.669 387.149 193.826 387.592 195.695C388.034 197.563 386.873 199.435 384.998 199.876C383.123 200.318 381.244 199.161 380.802 197.292C380.359 195.424 381.52 193.552 383.395 193.111Z" fill="white"/>
<path d="M380.71 185.518C380.74 183.598 382.326 182.066 384.253 182.096C386.179 182.126 387.717 183.707 387.686 185.626C387.656 187.546 386.07 189.078 384.144 189.048C382.218 189.018 380.68 187.437 380.71 185.518Z" fill="white"/>
<path d="M383.412 171.264C385.289 170.831 387.163 171.995 387.598 173.866C388.033 175.736 386.864 177.603 384.987 178.037C383.11 178.47 381.236 177.305 380.801 175.435C380.366 173.565 381.535 171.697 383.412 171.264Z" fill="white"/>
<path d="M398.268 193.111C400.143 192.669 402.022 193.826 402.465 195.695C402.907 197.563 401.746 199.435 399.871 199.876C397.996 200.318 396.118 199.161 395.675 197.292C395.232 195.424 396.393 193.552 398.268 193.111Z" fill="white"/>
<path d="M395.584 185.518C395.614 183.598 397.2 182.066 399.126 182.096C401.053 182.126 402.59 183.707 402.56 185.626C402.53 187.546 400.944 189.078 399.017 189.048C397.091 189.018 395.554 187.437 395.584 185.518Z" fill="white"/>
<path d="M398.285 171.264C400.162 170.831 402.036 171.995 402.471 173.866C402.906 175.736 401.737 177.603 399.86 178.037C397.983 178.47 396.109 177.305 395.674 175.435C395.239 173.565 396.408 171.697 398.285 171.264Z" fill="white"/>
<path d="M413.172 193.057C415.047 192.616 416.926 193.773 417.369 195.641C417.811 197.509 416.65 199.382 414.775 199.823C412.9 200.264 411.021 199.107 410.579 197.239C410.136 195.37 411.297 193.498 413.172 193.057Z" fill="white"/>
<path d="M410.487 185.464C410.517 183.544 412.103 182.013 414.03 182.043C415.956 182.072 417.494 183.653 417.464 185.573C417.434 187.492 415.847 189.024 413.921 188.994C411.995 188.964 410.457 187.384 410.487 185.464Z" fill="white"/>
<path d="M413.189 171.21C415.066 170.777 416.94 171.942 417.375 173.812C417.81 175.682 416.641 177.55 414.764 177.983C412.887 178.416 411.013 177.251 410.578 175.381C410.143 173.511 411.312 171.643 413.189 171.21Z" fill="white"/>
<path d="M428.076 193.057C429.951 192.616 431.83 193.773 432.273 195.641C432.715 197.509 431.554 199.382 429.679 199.823C427.804 200.264 425.926 199.107 425.483 197.239C425.04 195.37 426.201 193.498 428.076 193.057Z" fill="white"/>
<path d="M425.392 185.464C425.422 183.544 427.008 182.013 428.934 182.043C430.861 182.072 432.398 183.653 432.368 185.573C432.338 187.492 430.752 189.024 428.825 188.994C426.899 188.964 425.362 187.384 425.392 185.464Z" fill="white"/>
<path d="M428.093 171.21C429.97 170.777 431.844 171.942 432.279 173.812C432.714 175.682 431.545 177.55 429.668 177.983C427.791 178.416 425.917 177.251 425.482 175.381C425.047 173.511 426.216 171.643 428.093 171.21Z" fill="white"/>
<path d="M383.395 226.536C385.27 226.095 387.149 227.252 387.592 229.12C388.034 230.989 386.873 232.861 384.998 233.302C383.123 233.743 381.244 232.586 380.802 230.718C380.359 228.85 381.52 226.977 383.395 226.536Z" fill="white"/>
<path d="M380.71 218.944C380.74 217.024 382.326 215.492 384.253 215.522C386.179 215.552 387.717 217.132 387.686 219.052C387.656 220.972 386.07 222.504 384.144 222.474C382.218 222.444 380.68 220.863 380.71 218.944Z" fill="white"/>
<path d="M383.412 204.69C385.289 204.256 387.163 205.421 387.598 207.291C388.033 209.162 386.864 211.029 384.987 211.463C383.11 211.896 381.236 210.731 380.801 208.861C380.366 206.99 381.535 205.123 383.412 204.69Z" fill="white"/>
<path d="M398.268 226.536C400.143 226.095 402.022 227.252 402.465 229.12C402.907 230.989 401.746 232.861 399.871 233.302C397.996 233.743 396.118 232.586 395.675 230.718C395.232 228.85 396.393 226.977 398.268 226.536Z" fill="white"/>
<path d="M395.584 218.944C395.614 217.024 397.2 215.492 399.126 215.522C401.053 215.552 402.59 217.132 402.56 219.052C402.53 220.972 400.944 222.504 399.017 222.474C397.091 222.444 395.554 220.863 395.584 218.944Z" fill="white"/>
<path d="M398.285 204.69C400.162 204.256 402.036 205.421 402.471 207.291C402.906 209.162 401.737 211.029 399.86 211.463C397.983 211.896 396.109 210.731 395.674 208.861C395.239 206.99 396.408 205.123 398.285 204.69Z" fill="white"/>
<path d="M413.172 226.482C415.047 226.041 416.926 227.198 417.369 229.066C417.811 230.935 416.65 232.807 414.775 233.248C412.9 233.689 411.021 232.532 410.579 230.664C410.136 228.796 411.297 226.923 413.172 226.482Z" fill="white"/>
<path d="M410.488 218.889C410.518 216.97 412.104 215.438 414.03 215.468C415.956 215.498 417.494 217.078 417.464 218.998C417.434 220.917 415.848 222.449 413.921 222.419C411.995 222.389 410.457 220.809 410.488 218.889Z" fill="white"/>
<path d="M413.189 204.635C415.066 204.202 416.94 205.367 417.375 207.237C417.81 209.108 416.641 210.975 414.764 211.408C412.887 211.842 411.013 210.677 410.578 208.806C410.143 206.936 411.312 205.069 413.189 204.635Z" fill="white"/>
<path d="M428.076 226.482C429.951 226.041 431.83 227.198 432.273 229.066C432.715 230.935 431.554 232.807 429.679 233.248C427.804 233.689 425.926 232.532 425.483 230.664C425.04 228.796 426.201 226.923 428.076 226.482Z" fill="white"/>
<path d="M425.392 218.889C425.422 216.97 427.008 215.438 428.934 215.468C430.861 215.498 432.398 217.078 432.368 218.998C432.338 220.917 430.752 222.449 428.825 222.419C426.899 222.389 425.362 220.809 425.392 218.889Z" fill="white"/>
<path d="M428.093 204.635C429.97 204.202 431.844 205.367 432.279 207.237C432.714 209.108 431.545 210.975 429.668 211.408C427.791 211.842 425.917 210.677 425.482 208.806C425.047 206.936 426.216 205.069 428.093 204.635Z" fill="white"/>
<path d="M383.395 259.962C385.27 259.52 387.149 260.677 387.592 262.546C388.034 264.414 386.873 266.286 384.998 266.728C383.123 267.169 381.244 266.012 380.802 264.143C380.359 262.275 381.52 260.403 383.395 259.962Z" fill="white"/>
<path d="M380.71 252.369C380.74 250.449 382.326 248.917 384.253 248.947C386.179 248.977 387.717 250.558 387.686 252.477C387.656 254.397 386.07 255.929 384.144 255.899C382.218 255.869 380.68 254.289 380.71 252.369Z" fill="white"/>
<path d="M383.412 238.115C385.289 237.682 387.163 238.846 387.598 240.717C388.033 242.587 386.864 244.454 384.987 244.888C383.11 245.321 381.236 244.156 380.801 242.286C380.366 240.416 381.535 238.548 383.412 238.115Z" fill="white"/>
<path d="M398.268 259.962C400.143 259.52 402.022 260.677 402.465 262.546C402.907 264.414 401.746 266.286 399.871 266.728C397.996 267.169 396.118 266.012 395.675 264.143C395.232 262.275 396.393 260.403 398.268 259.962Z" fill="white"/>
<path d="M395.584 252.369C395.614 250.449 397.2 248.917 399.126 248.947C401.053 248.977 402.59 250.558 402.56 252.477C402.53 254.397 400.944 255.929 399.017 255.899C397.091 255.869 395.554 254.289 395.584 252.369Z" fill="white"/>
<path d="M398.285 238.115C400.162 237.682 402.036 238.846 402.471 240.717C402.906 242.587 401.737 244.454 399.86 244.888C397.983 245.321 396.109 244.156 395.674 242.286C395.239 240.416 396.408 238.548 398.285 238.115Z" fill="white"/>
<path d="M413.172 259.908C415.047 259.467 416.926 260.624 417.369 262.492C417.811 264.36 416.65 266.233 414.775 266.674C412.9 267.115 411.021 265.958 410.579 264.09C410.136 262.221 411.297 260.349 413.172 259.908Z" fill="white"/>
<path d="M410.488 252.315C410.518 250.396 412.104 248.864 414.03 248.894C415.956 248.924 417.494 250.504 417.464 252.424C417.434 254.343 415.848 255.875 413.921 255.845C411.995 255.815 410.457 254.235 410.488 252.315Z" fill="white"/>
<path d="M413.189 238.061C415.066 237.628 416.94 238.793 417.375 240.663C417.81 242.533 416.641 244.401 414.764 244.834C412.887 245.267 411.013 244.102 410.578 242.232C410.143 240.362 411.312 238.494 413.189 238.061Z" fill="white"/>
<path d="M428.076 259.908C429.951 259.467 431.83 260.624 432.273 262.492C432.715 264.36 431.554 266.233 429.679 266.674C427.804 267.115 425.926 265.958 425.483 264.09C425.04 262.221 426.201 260.349 428.076 259.908Z" fill="white"/>
<path d="M425.392 252.315C425.422 250.396 427.008 248.864 428.934 248.894C430.861 248.924 432.398 250.504 432.368 252.424C432.338 254.343 430.752 255.875 428.825 255.845C426.899 255.815 425.362 254.235 425.392 252.315Z" fill="white"/>
<path d="M428.093 238.061C429.97 237.628 431.844 238.793 432.279 240.663C432.714 242.533 431.545 244.401 429.668 244.834C427.791 245.267 425.917 244.102 425.482 242.232C425.047 240.362 426.216 238.494 428.093 238.061Z" fill="white"/>
<path d="M540 0H495.291V135.218H540V0Z" fill="white"/>
<path d="M531.532 25.9559C533.354 18.3059 528.63 10.6272 520.983 8.80514C513.335 6.98307 505.659 11.7076 503.837 19.3576C502.015 27.0077 506.739 34.6863 514.386 36.5084C522.034 38.3305 529.711 33.606 531.532 25.9559Z" fill="#A4B7F9"/>
<path d="M527.75 77.467C533.309 71.9064 533.309 62.8909 527.75 57.3303C522.191 51.7698 513.179 51.7698 507.62 57.3304C502.061 62.8909 502.061 71.9064 507.62 77.467C513.179 83.0276 522.191 83.0276 527.75 77.467Z" fill="#A4B7F9"/>
<path d="M531.539 115.413C533.36 107.763 528.637 100.084 520.989 98.2624C513.341 96.4403 505.665 101.165 503.843 108.815C502.022 116.465 506.745 124.144 514.393 125.966C522.041 127.788 529.717 123.063 531.539 115.413Z" fill="#A4B7F9"/>
<path d="M136.456 462.54L136.429 404.346L68.0452 404.37L136.456 462.54Z" fill="white"/>
<path d="M484.97 135H486.545C486.545 136.336 487.632 137.424 488.967 137.424C490.302 137.424 491.381 136.336 491.381 135H492.956C492.956 137.208 491.166 139 488.967 139C486.761 139 484.97 137.208 484.97 135Z" fill="white"/>
<path d="M475.776 135H477.351C477.351 141.416 482.555 146.624 488.967 146.624C495.371 146.624 500.575 141.416 500.575 135H502.15C502.15 142.28 496.234 148.2 488.967 148.2C481.692 148.2 475.776 142.28 475.776 135Z" fill="white"/>
<path d="M466.582 135H468.157C468.157 146.488 477.487 155.824 488.967 155.824C500.44 155.824 509.769 146.488 509.769 135H511.344C511.344 147.352 501.303 157.4 488.967 157.4C476.623 157.4 466.582 147.352 466.582 135Z" fill="white"/>
<path d="M488.967 185C461.409 185 439 162.576 439 135H440.567C440.567 161.704 462.281 183.432 488.967 183.432C515.645 183.432 537.359 161.704 537.359 135H538.934C538.934 162.576 516.517 185 488.967 185Z" fill="white"/>
<path d="M457.388 135H458.963C458.963 151.56 472.418 165.024 488.967 165.024C505.508 165.024 518.963 151.56 518.963 135H520.538C520.538 152.424 506.38 166.6 488.967 166.6C471.555 166.6 457.388 152.424 457.388 135Z" fill="white"/>
<path d="M448.194 135H449.761C449.761 156.632 467.349 174.224 488.967 174.224C510.577 174.224 528.165 156.632 528.165 135H529.732C529.732 157.504 511.448 175.8 488.967 175.8C466.478 175.8 448.194 157.504 448.194 135Z" fill="white"/>
<path d="M492.964 270H491.389C491.389 268.664 490.302 267.576 488.967 267.576C487.632 267.576 486.553 268.664 486.553 270H484.978C484.978 267.792 486.768 266 488.967 266C491.174 266 492.964 267.792 492.964 270Z" fill="white"/>
<path d="M502.158 270H500.583C500.583 263.584 495.379 258.376 488.967 258.376C482.563 258.376 477.359 263.584 477.359 270H475.784C475.784 262.72 481.7 256.8 488.967 256.8C496.242 256.8 502.158 262.72 502.158 270Z" fill="white"/>
<path d="M511.352 270H509.777C509.777 258.512 500.447 249.176 488.967 249.176C477.495 249.176 468.165 258.512 468.165 270H466.59C466.59 257.648 476.631 247.6 488.967 247.6C501.311 247.6 511.352 257.648 511.352 270Z" fill="white"/>
<path d="M488.967 220C516.525 220 538.934 242.424 538.934 270H537.367C537.367 243.296 515.653 221.568 488.967 221.568C462.289 221.568 440.575 243.296 440.575 270H439C439 242.424 461.417 220 488.967 220Z" fill="white"/>
<path d="M520.546 270H518.971C518.971 253.44 505.516 239.976 488.967 239.976C472.426 239.976 458.971 253.44 458.971 270H457.396C457.396 252.576 471.555 238.4 488.967 238.4C506.38 238.4 520.546 252.576 520.546 270Z" fill="white"/>
<path d="M529.74 270H528.173C528.173 248.368 510.585 230.776 488.967 230.776C467.357 230.776 449.769 248.368 449.769 270H448.202C448.202 247.496 466.486 229.2 488.967 229.2C511.456 229.2 529.74 247.496 529.74 270Z" fill="white"/>
<rect x="136" y="405" width="135" height="134" fill="#F2F5FD"/>
<path d="M272 473.005V540.5H204.004C204.004 503.221 234.444 473.005 272 473.005Z" fill="#4B3BCF"/>
<path d="M272 404V473.006C234.444 473.006 204 441.631 204 404H272Z" fill="#4B3BCF"/>
<path d="M136 404H204.5C204.5 441.557 173.836 472.502 136 472.502V404Z" fill="#4B3BCF"/>
<path d="M204.504 539.996H136V472.502C173.836 472.502 204.504 502.718 204.504 539.996Z" fill="#4B3BCF"/>
<path d="M272 404V270C197.223 268.9 136 329.215 136 404H272Z" fill="#867CFF"/>
<rect x="272" y="338" width="135" height="135" fill="#EBE9FF"/>
<path d="M339 301.765L359.708 270L358.695 308.504L393.208 295.602L370.856 326.129L406 337.014L370.856 347.871L393.208 378.398L358.695 365.496L359.708 404L339 372.235L318.292 404L319.305 365.496L284.792 378.398L307.144 347.871L272 337.014L307.144 326.129L284.792 295.602L319.305 308.504L318.292 270L339 301.765Z" fill="#4B3BCF"/>
<mask id="mask3_135_570" style="mask-type:alpha" maskUnits="userSpaceOnUse" x="272" y="472" width="135" height="68">
<path d="M407 472H272V540H407V472Z" fill="#F2F5FD"/>
</mask>
<g mask="url(#mask3_135_570)">
<ellipse cx="338.95" cy="540" rx="67.608" ry="67.9402" fill="#867CFF"/>
</g>
<mask id="mask4_135_570" style="mask-type:alpha" maskUnits="userSpaceOnUse" x="272" y="404" width="136" height="69">
<path d="M407.324 404H272V472.256H407.324V404Z" fill="#D7D3FF"/>
</mask>
<g mask="url(#mask4_135_570)">
<circle cx="339.338" cy="402.338" r="67.338" fill="#867CFF"/>
</g>
</g>
<defs>
<clipPath id="clip0_135_570">
<rect width="540" height="540" fill="white"/>
</clipPath>
</defs>
</svg>
