<svg width="250" height="249" viewBox="0 0 250 249" fill="none" xmlns="http://www.w3.org/2000/svg">
<path d="M249.255 0H166.255V83C177.153 83.007 187.944 80.8654 198.014 76.6974C208.084 72.5294 217.234 66.4168 224.942 58.7088C232.65 51.0008 238.765 41.8486 242.936 31.7751C247.108 21.7016 249.255 10.9042 249.255 0Z" fill="#421C76" fill-opacity="0.843137"/>
<path d="M166.255 83H83.2554V166C94.1526 166.007 104.944 163.865 115.014 159.697C125.084 155.529 134.234 149.417 141.942 141.709C149.65 134.001 155.765 124.849 159.936 114.775C164.108 104.702 166.255 93.9042 166.255 83Z" fill="#A791EF"/>
<path d="M0.255371 249C22.248 249.014 43.346 240.279 58.9104 224.714C74.4749 209.15 83.2317 188.03 83.2554 166H0.255371V249Z" fill="#421C76" fill-opacity="0.843137"/>
<path d="M41.7554 3.15905e-06L83.2554 3.15905e-06L83.2554 41.5V83H82.9898L41.7554 83H0.255371L0.255371 41.5L0.255371 3.15905e-06H41.7554Z" fill="#A791EF"/>
<path d="M33.4019 72.5828L49.8531 82.9536V62.212L33.4019 72.5828Z" fill="#421C76" fill-opacity="0.843137"/>
<path d="M33.4019 51.8477L49.8531 62.2119V41.4769L33.4019 51.8477Z" fill="#421C76" fill-opacity="0.843137"/>
<path d="M33.4019 31.1057L49.8531 41.4766V20.7349L33.4019 31.1057Z" fill="#421C76" fill-opacity="0.843137"/>
<path d="M33.4019 10.3707L49.8531 20.7349V-0.000166717L33.4019 10.3707Z" fill="#421C76" fill-opacity="0.843137"/>
<path d="M16.4512 72.5828L32.8958 82.9536V62.212L16.4512 72.5828Z" fill="#421C76" fill-opacity="0.843137"/>
<path d="M16.4512 51.8477L32.8958 62.2119V41.4769L16.4512 51.8477Z" fill="#421C76" fill-opacity="0.843137"/>
<path d="M16.4512 31.1057L32.8958 41.4766V20.7349L16.4512 31.1057Z" fill="#421C76" fill-opacity="0.843137"/>
<path d="M16.4512 10.3707L32.8958 20.7349V-0.000166717L16.4512 10.3707Z" fill="#421C76" fill-opacity="0.843137"/>
<path d="M66.8042 72.5828L83.2555 82.9536V62.212L66.8042 72.5828Z" fill="#421C76" fill-opacity="0.843137"/>
<path d="M66.8042 51.8477L83.2555 62.2119V41.4769L66.8042 51.8477Z" fill="#421C76" fill-opacity="0.843137"/>
<path d="M66.8042 31.1057L83.2555 41.4766V20.7349L66.8042 31.1057Z" fill="#421C76" fill-opacity="0.843137"/>
<path d="M66.8042 10.3712L83.2555 20.7354V0.000321565L66.8042 10.3712Z" fill="#421C76" fill-opacity="0.843137"/>
<path d="M49.8535 72.5828L66.2981 82.9536V62.212L49.8535 72.5828Z" fill="#421C76" fill-opacity="0.843137"/>
<path d="M49.8535 51.8477L66.2981 62.2119V41.4769L49.8535 51.8477Z" fill="#421C76" fill-opacity="0.843137"/>
<path d="M49.8535 31.1057L66.2981 41.4766V20.7349L49.8535 31.1057Z" fill="#421C76" fill-opacity="0.843137"/>
<path d="M49.8535 10.3712L66.2981 20.7354V0.000321565L49.8535 10.3712Z" fill="#421C76" fill-opacity="0.843137"/>
<path d="M0 72.6292L16.4513 83L16.4513 62.2583L0 72.6292Z" fill="#421C76" fill-opacity="0.843137"/>
<path d="M0 51.8941L16.4513 62.2583L16.4513 41.5233L0 51.8941Z" fill="#421C76" fill-opacity="0.843137"/>
<path d="M0 31.1526L16.4513 41.5234L16.4513 20.7884L0 31.1526Z" fill="#421C76" fill-opacity="0.843137"/>
<path d="M0 10.4177L16.4513 20.7886L16.4513 0.0469094L0 10.4177Z" fill="#421C76" fill-opacity="0.843137"/>
<path d="M166.255 41.5C166.255 18.5802 147.675 0 124.755 0C101.836 0 83.2554 18.5802 83.2554 41.5C83.2554 64.4198 101.836 83 124.755 83C147.675 83 166.255 64.4198 166.255 41.5Z" fill="#33247C"/>
<path d="M41.7603 124.474C41.7603 124.474 42.7457 144.443 31.2959 155.707C19.8461 166.971 0.278222 165.977 0.278222 165.977C0.278222 165.977 -0.734021 146.716 10.7158 135.445C22.1589 124.181 41.7603 124.474 41.7603 124.474Z" fill="#33247C"/>
<path d="M0.27662 83.0007C0.27662 83.0007 -0.708664 102.944 10.7393 114.194C22.1872 125.45 41.7587 124.451 41.7587 124.451C41.7587 124.451 42.7708 105.214 31.3228 93.9575C19.8749 82.7078 0.27662 83.0007 0.27662 83.0007Z" fill="#33247C"/>
<path d="M41.803 124.474C41.803 124.474 40.8189 144.443 52.2524 155.706C63.6859 166.977 83.2327 165.977 83.2327 165.977C83.2327 165.977 84.2435 146.715 72.81 135.445C61.3765 124.181 41.803 124.474 41.803 124.474Z" fill="#33247C"/>
<path d="M82.9789 83.0007C82.9789 83.0007 83.9629 102.944 72.5294 114.194C61.0959 125.45 41.5492 124.451 41.5492 124.451C41.5492 124.451 40.5384 105.214 51.9719 93.9575C63.4054 82.7078 82.9789 83.0007 82.9789 83.0007Z" fill="#33247C"/>
</svg>
