<svg width="537" height="540" viewBox="0 0 537 540" fill="none" xmlns="http://www.w3.org/2000/svg">
<path d="M405.62 472.608H270.404V540H405.62V472.608Z" fill="#1A0438"/>
<path d="M135 471V401.167C135 364.072 104.928 334 67.8326 334C30.9856 334 1.0176 363.685 0.668219 400.531L0 471H135Z" fill="#421C76" fill-opacity="0.843137"/>
<path d="M405.782 270.564V136.219L338.336 136.109C301.165 136.049 271 166.165 271 203.337C271 240.465 301.099 270.564 338.227 270.564H405.782Z" fill="#421C76" fill-opacity="0.843137"/>
<path d="M538.892 404.406H404.972V540H538.892V404.406Z" fill="#1A0438"/>
<path d="M542.795 134.782H405.527V269.566H542.795V134.782Z" fill="#EBE9FF"/>
<path d="M539.654 0H405.527V135.218H539.654V0Z" fill="#A791EF"/>
<path d="M448.738 45.1425C473.671 45.0638 493.947 65.0001 494.025 89.6716L494.167 134.636L449.021 134.779L448.738 45.1425Z" fill="#33247C"/>
<path d="M449.496 45.1379C424.921 45.2154 405.063 65.2551 405.141 89.8978L405.283 134.81L449.778 134.669L449.496 45.1379Z" fill="#33247C"/>
<path d="M406 270H270V340H406V270Z" fill="#1A0438"/>
<path d="M539.218 269.564H405.527V405.218H539.218V269.564Z" fill="#1A0438"/>
<path d="M406 404H472V473L406 404Z" fill="#4B70F5"/>
<path d="M405.62 269.622H472.418V337.824L405.62 269.622Z" fill="#4B70F5"/>
<path d="M472.31 472.554H538.892V539.946L472.31 472.554Z" fill="#421C76" fill-opacity="0.843137"/>
<path d="M472.418 337.878H538.892V405.486L472.418 337.878Z" fill="#421C76" fill-opacity="0.843137"/>
<path d="M472.31 472.554H538.892V405.216L472.31 472.554Z" fill="#421C76" fill-opacity="0.843137"/>
<path d="M472.31 337.878H538.892V269.622L472.31 337.878Z" fill="#421C76" fill-opacity="0.843137"/>
<path d="M404.972 540H472.418V472.608L404.972 540Z" fill="#4B70F5"/>
<path d="M406 404H472V338L406 404Z" fill="#4B70F5"/>
<mask id="mask0_750_186" style="mask-type:alpha" maskUnits="userSpaceOnUse" x="0" y="471" width="136" height="68">
<path d="M0 538.995H135.216V471H0V538.995Z" fill="#EBE9FF"/>
</mask>
<g mask="url(#mask0_750_186)">
<ellipse cx="67.6698" cy="471" rx="67.608" ry="67.9402" transform="rotate(-180 67.6698 471)" fill="#421C76" fill-opacity="0.843137"/>
</g>
<mask id="mask1_750_186" style="mask-type:alpha" maskUnits="userSpaceOnUse" x="405" y="135" width="137" height="136">
<path d="M540.998 135.718V269.502H406.026V135.718H540.998Z" fill="#EBE9FF" stroke="#A791EF"/>
</mask>
<g mask="url(#mask1_750_186)">
<path d="M540.961 267.046C533.438 267.046 533.438 258.852 525.916 258.852C518.394 258.852 518.394 267.046 510.871 267.046C503.349 267.046 503.349 258.852 495.827 258.852C488.304 258.852 488.304 267.046 480.782 267.046C473.26 267.046 473.26 258.852 465.737 258.852C458.215 258.852 458.215 267.046 450.693 267.046C443.17 267.046 443.17 258.852 435.648 258.852C428.126 258.852 428.126 267.046 420.587 267.046C413.065 267.046 413.065 258.852 405.526 258.852" stroke="#A791EF" stroke-width="25" stroke-miterlimit="10" stroke-linecap="round"/>
<path d="M540.961 253.219C533.438 253.219 533.438 245.025 525.916 245.025C518.394 245.025 518.394 253.219 510.871 253.219C503.349 253.219 503.349 245.025 495.827 245.025C488.304 245.025 488.304 253.219 480.782 253.219C473.26 253.219 473.26 245.025 465.737 245.025C458.215 245.025 458.215 253.219 450.693 253.219C443.17 253.219 443.17 245.025 435.648 245.025C428.126 245.025 428.126 253.219 420.587 253.219C413.065 253.219 413.065 245.025 405.526 245.025" stroke="#A791EF" stroke-width="25" stroke-miterlimit="10" stroke-linecap="round"/>
<path d="M540.96 239.396C533.438 239.396 533.438 231.201 525.916 231.201C518.393 231.201 518.393 239.396 510.871 239.396C503.349 239.396 503.349 231.201 495.826 231.201C488.304 231.201 488.304 239.396 480.782 239.396C473.259 239.396 473.259 231.201 465.737 231.201C458.215 231.201 458.215 239.396 450.692 239.396C443.17 239.396 443.17 231.201 435.647 231.201C428.125 231.201 428.125 239.396 420.587 239.396C413.08 239.396 413.08 231.201 405.558 231.201" stroke="#A791EF" stroke-width="25" stroke-miterlimit="10" stroke-linecap="round"/>
<path d="M541.498 175.642C533.946 175.642 533.946 167.415 526.394 167.415C518.842 167.415 518.842 175.642 511.29 175.642C503.737 175.642 503.737 167.415 496.185 167.415C488.633 167.415 488.633 175.642 481.081 175.642C473.529 175.642 473.529 167.415 465.976 167.415C458.424 167.415 458.424 175.642 450.872 175.642C443.32 175.642 443.32 167.415 435.768 167.415C428.215 167.415 428.215 175.642 420.647 175.642C413.095 175.642 413.095 167.415 405.526 167.415" stroke="#A791EF" stroke-width="25" stroke-miterlimit="10" stroke-linecap="round"/>
<path d="M541.498 161.76C533.946 161.76 533.946 153.533 526.394 153.533C518.842 153.533 518.842 161.76 511.29 161.76C503.737 161.76 503.737 153.533 496.185 153.533C488.633 153.533 488.633 161.76 481.081 161.76C473.529 161.76 473.529 153.533 465.976 153.533C458.424 153.533 458.424 161.76 450.872 161.76C443.32 161.76 443.32 153.533 435.768 153.533C428.215 153.533 428.215 161.76 420.647 161.76C413.095 161.76 413.095 153.533 405.526 153.533" stroke="#A791EF" stroke-width="25" stroke-miterlimit="10" stroke-linecap="round"/>
<path d="M541.498 147.881C533.946 147.881 533.946 139.654 526.394 139.654C518.841 139.654 518.841 147.881 511.289 147.881C503.737 147.881 503.737 139.654 496.185 139.654C488.633 139.654 488.633 147.881 481.08 147.881C473.528 147.881 473.528 139.654 465.976 139.654C458.424 139.654 458.424 147.881 450.871 147.881C443.319 147.881 443.319 139.654 435.767 139.654C428.215 139.654 428.215 147.881 420.647 147.881C413.11 147.881 413.11 139.654 405.558 139.654" stroke="#A791EF" stroke-width="25" stroke-miterlimit="10" stroke-linecap="round"/>
<path d="M541.498 221.376C533.946 221.376 533.946 213.149 526.394 213.149C518.842 213.149 518.842 221.376 511.29 221.376C503.737 221.376 503.737 213.149 496.185 213.149C488.633 213.149 488.633 221.376 481.081 221.376C473.529 221.376 473.529 213.149 465.976 213.149C458.424 213.149 458.424 221.376 450.872 221.376C443.32 221.376 443.32 213.149 435.768 213.149C428.215 213.149 428.215 221.376 420.647 221.376C413.095 221.376 413.095 213.149 405.526 213.149" stroke="#A791EF" stroke-width="25" stroke-miterlimit="10" stroke-linecap="round"/>
<path d="M541.498 207.494C533.946 207.494 533.946 199.267 526.394 199.267C518.842 199.267 518.842 207.494 511.29 207.494C503.737 207.494 503.737 199.267 496.185 199.267C488.633 199.267 488.633 207.494 481.081 207.494C473.529 207.494 473.529 199.267 465.976 199.267C458.424 199.267 458.424 207.494 450.872 207.494C443.32 207.494 443.32 199.267 435.768 199.267C428.215 199.267 428.215 207.494 420.647 207.494C413.095 207.494 413.095 199.267 405.526 199.267" stroke="#A791EF" stroke-width="25" stroke-miterlimit="10" stroke-linecap="round"/>
<path d="M541.498 193.616C533.946 193.616 533.946 185.389 526.394 185.389C518.841 185.389 518.841 193.616 511.289 193.616C503.737 193.616 503.737 185.389 496.185 185.389C488.633 185.389 488.633 193.616 481.08 193.616C473.528 193.616 473.528 185.389 465.976 185.389C458.424 185.389 458.424 193.616 450.871 193.616C443.319 193.616 443.319 185.389 435.767 185.389C428.215 185.389 428.215 193.616 420.647 193.616C413.11 193.616 413.11 185.389 405.558 185.389" stroke="#A791EF" stroke-width="25" stroke-miterlimit="10" stroke-linecap="round"/>
</g>
<path d="M382.418 159.684C384.293 159.243 386.172 160.4 386.615 162.268C387.057 164.136 385.896 166.009 384.021 166.45C382.146 166.891 380.267 165.734 379.825 163.866C379.382 161.997 380.543 160.125 382.418 159.684Z" fill="#1A0438"/>
<path d="M379.733 152.091C379.764 150.171 381.35 148.64 383.276 148.669C385.202 148.699 386.74 150.28 386.71 152.199C386.68 154.119 385.094 155.651 383.167 155.621C381.241 155.591 379.703 154.011 379.733 152.091Z" fill="#1A0438"/>
<path d="M382.435 137.837C384.312 137.404 386.186 138.569 386.621 140.439C387.056 142.309 385.887 144.177 384.01 144.61C382.133 145.043 380.259 143.878 379.824 142.008C379.389 140.138 380.558 138.27 382.435 137.837Z" fill="#1A0438"/>
<path d="M397.291 159.684C399.166 159.243 401.045 160.4 401.488 162.268C401.931 164.136 400.77 166.009 398.895 166.45C397.02 166.891 395.141 165.734 394.698 163.866C394.255 161.997 395.416 160.125 397.291 159.684Z" fill="#1A0438"/>
<path d="M394.607 152.091C394.637 150.171 396.223 148.64 398.149 148.669C400.076 148.699 401.613 150.28 401.583 152.199C401.553 154.119 399.967 155.651 398.04 155.621C396.114 155.591 394.577 154.011 394.607 152.091Z" fill="#1A0438"/>
<path d="M397.309 137.837C399.185 137.404 401.059 138.569 401.494 140.439C401.929 142.309 400.76 144.177 398.883 144.61C397.006 145.043 395.132 143.878 394.697 142.008C394.263 140.138 395.432 138.27 397.309 137.837Z" fill="#1A0438"/>
<path d="M412.195 159.63C414.07 159.189 415.949 160.346 416.392 162.214C416.835 164.083 415.674 165.955 413.799 166.396C411.924 166.837 410.045 165.68 409.602 163.812C409.159 161.943 410.32 160.071 412.195 159.63Z" fill="#1A0438"/>
<path d="M409.511 152.037C409.541 150.118 411.127 148.586 413.053 148.616C414.98 148.646 416.517 150.226 416.487 152.146C416.457 154.065 414.871 155.597 412.945 155.567C411.018 155.537 409.481 153.957 409.511 152.037Z" fill="#1A0438"/>
<path d="M412.213 137.783C414.089 137.35 415.964 138.515 416.398 140.385C416.833 142.256 415.664 144.123 413.787 144.556C411.91 144.99 410.036 143.825 409.601 141.954C409.167 140.084 410.336 138.217 412.213 137.783Z" fill="#1A0438"/>
<path d="M427.099 159.63C428.974 159.189 430.853 160.346 431.296 162.214C431.739 164.083 430.578 165.955 428.703 166.396C426.828 166.837 424.949 165.68 424.506 163.812C424.063 161.943 425.224 160.071 427.099 159.63Z" fill="#1A0438"/>
<path d="M424.415 152.037C424.445 150.118 426.031 148.586 427.957 148.616C429.884 148.646 431.421 150.226 431.391 152.146C431.361 154.065 429.775 155.597 427.848 155.567C425.922 155.537 424.385 153.957 424.415 152.037Z" fill="#1A0438"/>
<path d="M427.116 137.783C428.993 137.35 430.867 138.515 431.302 140.385C431.737 142.256 430.568 144.123 428.691 144.556C426.814 144.99 424.94 143.825 424.505 141.954C424.071 140.084 425.24 138.217 427.116 137.783Z" fill="#1A0438"/>
<path d="M382.395 193.11C384.27 192.668 386.149 193.825 386.592 195.694C387.034 197.562 385.873 199.434 383.998 199.875C382.123 200.317 380.244 199.16 379.802 197.291C379.359 195.423 380.52 193.551 382.395 193.11Z" fill="#1A0438"/>
<path d="M379.71 185.517C379.74 183.597 381.326 182.065 383.253 182.095C385.179 182.125 386.717 183.706 386.686 185.625C386.656 187.545 385.07 189.077 383.144 189.047C381.218 189.017 379.68 187.436 379.71 185.517Z" fill="#1A0438"/>
<path d="M382.412 171.263C384.289 170.83 386.163 171.994 386.598 173.865C387.033 175.735 385.864 177.602 383.987 178.036C382.11 178.469 380.236 177.304 379.801 175.434C379.366 173.564 380.535 171.696 382.412 171.263Z" fill="#1A0438"/>
<path d="M397.268 193.11C399.143 192.668 401.022 193.825 401.465 195.694C401.908 197.562 400.747 199.434 398.872 199.875C396.997 200.317 395.118 199.16 394.675 197.291C394.232 195.423 395.393 193.551 397.268 193.11Z" fill="#1A0438"/>
<path d="M394.584 185.517C394.614 183.597 396.2 182.065 398.126 182.095C400.053 182.125 401.59 183.706 401.56 185.625C401.53 187.545 399.944 189.077 398.017 189.047C396.091 189.017 394.554 187.436 394.584 185.517Z" fill="#1A0438"/>
<path d="M397.285 171.263C399.162 170.83 401.036 171.994 401.471 173.865C401.906 175.735 400.737 177.602 398.86 178.036C396.983 178.469 395.109 177.304 394.674 175.434C394.239 173.564 395.408 171.696 397.285 171.263Z" fill="#1A0438"/>
<path d="M412.172 193.056C414.047 192.615 415.926 193.772 416.369 195.64C416.812 197.508 415.65 199.381 413.775 199.822C411.9 200.263 410.022 199.106 409.579 197.238C409.136 195.369 410.297 193.497 412.172 193.056Z" fill="#1A0438"/>
<path d="M409.488 185.463C409.518 183.543 411.104 182.012 413.03 182.042C414.956 182.071 416.494 183.652 416.464 185.572C416.434 187.491 414.848 189.023 412.921 188.993C410.995 188.963 409.457 187.383 409.488 185.463Z" fill="#1A0438"/>
<path d="M412.189 171.209C414.066 170.776 415.94 171.941 416.375 173.811C416.81 175.681 415.641 177.549 413.764 177.982C411.887 178.415 410.013 177.25 409.578 175.38C409.143 173.51 410.312 171.642 412.189 171.209Z" fill="#1A0438"/>
<path d="M427.076 193.055C428.951 192.614 430.83 193.771 431.273 195.639C431.715 197.508 430.554 199.38 428.679 199.821C426.804 200.262 424.926 199.106 424.483 197.237C424.04 195.369 425.201 193.497 427.076 193.055Z" fill="#1A0438"/>
<path d="M424.392 185.463C424.422 183.543 426.008 182.011 427.934 182.041C429.861 182.071 431.398 183.651 431.368 185.571C431.338 187.491 429.752 189.023 427.825 188.993C425.899 188.963 424.362 187.382 424.392 185.463Z" fill="#1A0438"/>
<path d="M427.093 171.209C428.97 170.775 430.844 171.94 431.279 173.811C431.714 175.681 430.545 177.548 428.668 177.982C426.791 178.415 424.917 177.25 424.482 175.38C424.047 173.509 425.216 171.642 427.093 171.209Z" fill="#1A0438"/>
<path d="M382.395 226.535C384.27 226.094 386.149 227.251 386.592 229.119C387.034 230.987 385.873 232.86 383.998 233.301C382.123 233.742 380.244 232.585 379.802 230.717C379.359 228.848 380.52 226.976 382.395 226.535Z" fill="#1A0438"/>
<path d="M379.71 218.942C379.74 217.022 381.326 215.491 383.253 215.521C385.179 215.55 386.717 217.131 386.686 219.051C386.656 220.97 385.07 222.502 383.144 222.472C381.218 222.442 379.68 220.862 379.71 218.942Z" fill="#1A0438"/>
<path d="M382.412 204.688C384.289 204.255 386.163 205.42 386.598 207.29C387.033 209.16 385.864 211.028 383.987 211.461C382.11 211.894 380.236 210.729 379.801 208.859C379.366 206.989 380.535 205.121 382.412 204.688Z" fill="#1A0438"/>
<path d="M397.268 226.535C399.143 226.094 401.022 227.251 401.465 229.119C401.908 230.987 400.747 232.86 398.872 233.301C396.997 233.742 395.118 232.585 394.675 230.717C394.232 228.848 395.393 226.976 397.268 226.535Z" fill="#1A0438"/>
<path d="M394.584 218.942C394.614 217.022 396.2 215.491 398.126 215.521C400.053 215.55 401.59 217.131 401.56 219.051C401.53 220.97 399.944 222.502 398.017 222.472C396.091 222.442 394.554 220.862 394.584 218.942Z" fill="#1A0438"/>
<path d="M397.285 204.688C399.162 204.255 401.036 205.42 401.471 207.29C401.906 209.16 400.737 211.028 398.86 211.461C396.983 211.894 395.109 210.729 394.674 208.859C394.239 206.989 395.408 205.121 397.285 204.688Z" fill="#1A0438"/>
<path d="M412.172 226.481C414.047 226.04 415.926 227.197 416.369 229.065C416.811 230.934 415.65 232.806 413.775 233.247C411.9 233.688 410.021 232.531 409.579 230.663C409.136 228.795 410.297 226.922 412.172 226.481Z" fill="#1A0438"/>
<path d="M409.488 218.888C409.518 216.969 411.104 215.437 413.03 215.467C414.956 215.497 416.494 217.077 416.464 218.997C416.434 220.916 414.848 222.448 412.921 222.418C410.995 222.388 409.457 220.808 409.488 218.888Z" fill="#1A0438"/>
<path d="M412.189 204.634C414.066 204.201 415.94 205.366 416.375 207.236C416.81 209.107 415.641 210.974 413.764 211.407C411.887 211.841 410.013 210.676 409.578 208.805C409.143 206.935 410.312 205.068 412.189 204.634Z" fill="#1A0438"/>
<path d="M427.076 226.481C428.951 226.04 430.83 227.197 431.273 229.065C431.715 230.934 430.554 232.806 428.679 233.247C426.804 233.688 424.926 232.531 424.483 230.663C424.04 228.795 425.201 226.922 427.076 226.481Z" fill="#1A0438"/>
<path d="M424.392 218.888C424.422 216.969 426.008 215.437 427.934 215.467C429.861 215.497 431.398 217.077 431.368 218.997C431.338 220.916 429.752 222.448 427.825 222.418C425.899 222.388 424.362 220.808 424.392 218.888Z" fill="#1A0438"/>
<path d="M427.093 204.634C428.97 204.201 430.844 205.366 431.279 207.236C431.714 209.107 430.545 210.974 428.668 211.407C426.791 211.841 424.917 210.676 424.482 208.805C424.047 206.935 425.216 205.068 427.093 204.634Z" fill="#1A0438"/>
<path d="M382.395 259.962C384.27 259.52 386.149 260.677 386.592 262.546C387.035 264.414 385.873 266.286 383.998 266.728C382.123 267.169 380.245 266.012 379.802 264.143C379.359 262.275 380.52 260.403 382.395 259.962Z" fill="#1A0438"/>
<path d="M379.711 252.369C379.741 250.449 381.327 248.917 383.253 248.947C385.179 248.977 386.717 250.558 386.687 252.477C386.657 254.397 385.071 255.929 383.144 255.899C381.218 255.869 379.68 254.289 379.711 252.369Z" fill="#1A0438"/>
<path d="M382.412 238.115C384.289 237.682 386.163 238.846 386.598 240.717C387.033 242.587 385.864 244.454 383.987 244.888C382.11 245.321 380.236 244.156 379.801 242.286C379.366 240.416 380.535 238.548 382.412 238.115Z" fill="#1A0438"/>
<path d="M397.268 259.962C399.143 259.52 401.022 260.677 401.465 262.546C401.908 264.414 400.747 266.286 398.872 266.728C396.997 267.169 395.118 266.012 394.675 264.143C394.232 262.275 395.393 260.403 397.268 259.962Z" fill="#1A0438"/>
<path d="M394.584 252.369C394.614 250.449 396.2 248.917 398.126 248.947C400.053 248.977 401.59 250.558 401.56 252.477C401.53 254.397 399.944 255.929 398.018 255.899C396.091 255.869 394.554 254.289 394.584 252.369Z" fill="#1A0438"/>
<path d="M397.285 238.115C399.162 237.682 401.036 238.846 401.471 240.717C401.906 242.587 400.737 244.454 398.86 244.888C396.983 245.321 395.109 244.156 394.674 242.286C394.239 240.416 395.409 238.548 397.285 238.115Z" fill="#1A0438"/>
<path d="M412.172 259.908C414.047 259.467 415.926 260.624 416.369 262.492C416.812 264.36 415.65 266.233 413.775 266.674C411.9 267.115 410.022 265.958 409.579 264.09C409.136 262.221 410.297 260.349 412.172 259.908Z" fill="#1A0438"/>
<path d="M409.488 252.315C409.518 250.396 411.104 248.864 413.03 248.894C414.957 248.924 416.494 250.504 416.464 252.424C416.434 254.343 414.848 255.875 412.921 255.845C410.995 255.815 409.458 254.235 409.488 252.315Z" fill="#1A0438"/>
<path d="M412.189 238.061C414.066 237.628 415.94 238.793 416.375 240.663C416.81 242.533 415.641 244.401 413.764 244.834C411.887 245.267 410.013 244.102 409.578 242.232C409.143 240.362 410.312 238.494 412.189 238.061Z" fill="#1A0438"/>
<path d="M427.076 259.908C428.951 259.467 430.83 260.624 431.273 262.492C431.716 264.36 430.555 266.233 428.68 266.674C426.805 267.115 424.926 265.958 424.483 264.09C424.04 262.221 425.201 260.349 427.076 259.908Z" fill="#1A0438"/>
<path d="M424.392 252.315C424.422 250.396 426.008 248.864 427.934 248.894C429.861 248.924 431.398 250.504 431.368 252.424C431.338 254.343 429.752 255.875 427.825 255.845C425.899 255.815 424.362 254.235 424.392 252.315Z" fill="#1A0438"/>
<path d="M427.094 238.061C428.97 237.628 430.844 238.793 431.279 240.663C431.714 242.533 430.545 244.401 428.668 244.834C426.791 245.267 424.917 244.102 424.482 242.232C424.048 240.362 425.217 238.494 427.094 238.061Z" fill="#1A0438"/>
<path d="M539 0H494.291V135.218H539V0Z" fill="#1A0438"/>
<path d="M530.532 25.9562C532.354 18.3062 527.63 10.6275 519.983 8.80539C512.335 6.98331 504.659 11.7078 502.837 19.3579C501.015 27.0079 505.739 34.6866 513.386 36.5086C521.034 38.3307 528.711 33.6062 530.532 25.9562Z" fill="#867CFF"/>
<path d="M526.75 77.4673C532.309 71.9067 532.309 62.8912 526.75 57.3306C521.191 51.77 512.179 51.77 506.62 57.3306C501.061 62.8912 501.061 71.9067 506.62 77.4673C512.179 83.0279 521.191 83.0279 526.75 77.4673Z" fill="#867CFF"/>
<path d="M530.539 115.414C532.36 107.764 527.637 100.085 519.989 98.2629C512.341 96.4408 504.665 101.165 502.843 108.815C501.022 116.465 505.745 124.144 513.393 125.966C521.041 127.788 528.717 123.064 530.539 115.414Z" fill="#867CFF"/>
<path d="M135.456 462.54L135.429 404.346L67.0452 404.37L135.456 462.54Z" fill="#1A0438"/>
<path d="M483.97 135H485.545C485.545 136.336 486.632 137.424 487.967 137.424C489.302 137.424 490.381 136.336 490.381 135H491.956C491.956 137.208 490.166 139 487.967 139C485.761 139 483.97 137.208 483.97 135Z" fill="#1A0438"/>
<path d="M474.776 135H476.351C476.351 141.416 481.555 146.624 487.967 146.624C494.371 146.624 499.575 141.416 499.575 135H501.15C501.15 142.28 495.234 148.2 487.967 148.2C480.692 148.2 474.776 142.28 474.776 135Z" fill="#1A0438"/>
<path d="M465.582 135H467.157C467.157 146.488 476.487 155.824 487.967 155.824C499.44 155.824 508.769 146.488 508.769 135H510.344C510.344 147.352 500.303 157.4 487.967 157.4C475.623 157.4 465.582 147.352 465.582 135Z" fill="#1A0438"/>
<path d="M487.967 185C460.409 185 438 162.576 438 135H439.567C439.567 161.704 461.281 183.432 487.967 183.432C514.645 183.432 536.359 161.704 536.359 135H537.934C537.934 162.576 515.517 185 487.967 185Z" fill="#1A0438"/>
<path d="M456.388 135H457.963C457.963 151.56 471.418 165.024 487.967 165.024C504.508 165.024 517.963 151.56 517.963 135H519.538C519.538 152.424 505.38 166.6 487.967 166.6C470.555 166.6 456.388 152.424 456.388 135Z" fill="#1A0438"/>
<path d="M447.194 135H448.761C448.761 156.632 466.349 174.224 487.967 174.224C509.577 174.224 527.165 156.632 527.165 135H528.732C528.732 157.504 510.448 175.8 487.967 175.8C465.478 175.8 447.194 157.504 447.194 135Z" fill="#1A0438"/>
<path d="M491.964 270H490.389C490.389 268.664 489.302 267.576 487.967 267.576C486.632 267.576 485.553 268.664 485.553 270H483.978C483.978 267.792 485.768 266 487.967 266C490.174 266 491.964 267.792 491.964 270Z" fill="#1A0438"/>
<path d="M501.158 270H499.583C499.583 263.584 494.379 258.376 487.967 258.376C481.563 258.376 476.359 263.584 476.359 270H474.784C474.784 262.72 480.7 256.8 487.967 256.8C495.242 256.8 501.158 262.72 501.158 270Z" fill="#1A0438"/>
<path d="M510.352 270H508.777C508.777 258.512 499.447 249.176 487.967 249.176C476.495 249.176 467.165 258.512 467.165 270H465.59C465.59 257.648 475.631 247.6 487.967 247.6C500.311 247.6 510.352 257.648 510.352 270Z" fill="#1A0438"/>
<path d="M487.967 220C515.525 220 537.934 242.424 537.934 270H536.367C536.367 243.296 514.653 221.568 487.967 221.568C461.289 221.568 439.575 243.296 439.575 270H438C438 242.424 460.417 220 487.967 220Z" fill="#1A0438"/>
<path d="M519.546 270H517.971C517.971 253.44 504.516 239.976 487.967 239.976C471.426 239.976 457.971 253.44 457.971 270H456.396C456.396 252.576 470.555 238.4 487.967 238.4C505.38 238.4 519.546 252.576 519.546 270Z" fill="#1A0438"/>
<path d="M528.74 270H527.173C527.173 248.368 509.585 230.776 487.967 230.776C466.357 230.776 448.769 248.368 448.769 270H447.202C447.202 247.496 465.486 229.2 487.967 229.2C510.456 229.2 528.74 247.496 528.74 270Z" fill="#1A0438"/>
<path d="M135 405H270V539H135V405Z" fill="#33247C"/>
<path d="M271 473.006V540.5H203.004C203.004 503.222 233.444 473.006 271 473.006Z" fill="#A791EF"/>
<path d="M271 404V473.006C233.444 473.006 203 441.631 203 404H271Z" fill="#A791EF"/>
<path d="M135 404H203.5C203.5 441.557 172.836 472.502 135 472.502V404Z" fill="#A791EF"/>
<path d="M203.504 539.996H135V472.502C172.836 472.502 203.504 502.718 203.504 539.996Z" fill="#A791EF"/>
<path d="M271 404V270C196.223 268.9 135 329.215 135 404H271Z" fill="#867CFF"/>
<path d="M271 338H406V473H271V338Z" fill="#1A0438"/>
<path d="M338 301.765L358.708 270L357.695 308.504L392.208 295.602L369.856 326.129L405 337.014L369.856 347.871L392.208 378.398L357.695 365.496L358.708 404L338 372.235L317.292 404L318.305 365.496L283.792 378.398L306.144 347.871L271 337.014L306.144 326.129L283.792 295.602L318.305 308.504L317.292 270L338 301.765Z" fill="#A791EF"/>
<mask id="mask2_750_186" style="mask-type:alpha" maskUnits="userSpaceOnUse" x="269" y="472" width="135" height="68">
<path d="M404 472H269V540H404V472Z" fill="#1A0438"/>
</mask>
<g mask="url(#mask2_750_186)">
<ellipse cx="337.5" cy="540.5" rx="66.5" ry="67.5" fill="#867CFF"/>
</g>
<mask id="mask3_750_186" style="mask-type:alpha" maskUnits="userSpaceOnUse" x="271" y="404" width="136" height="69">
<path d="M406.324 404H271V472.256H406.324V404Z" fill="#1A0438"/>
</mask>
<g mask="url(#mask3_750_186)">
<ellipse cx="338.5" cy="403.5" rx="67.5" ry="68.5" fill="#867CFF"/>
</g>
</svg>
